<?xml version="1.0" encoding="utf-8" standalone="no"?>
<!DOCTYPE svg PUBLIC "-//W3C//DTD SVG 1.1//EN"
  "http://www.w3.org/Graphics/SVG/1.1/DTD/svg11.dtd">
<svg xmlns:xlink="http://www.w3.org/1999/xlink" width="888.469375pt" height="449.643125pt" viewBox="0 0 888.469375 449.643125" xmlns="http://www.w3.org/2000/svg" version="1.1">
 <metadata>
  <rdf:RDF xmlns:dc="http://purl.org/dc/elements/1.1/" xmlns:cc="http://creativecommons.org/ns#" xmlns:rdf="http://www.w3.org/1999/02/22-rdf-syntax-ns#">
   <cc:Work>
    <dc:type rdf:resource="http://purl.org/dc/dcmitype/StillImage"/>
    <dc:date>2026-05-03T12:59:37.416935</dc:date>
    <dc:format>image/svg+xml</dc:format>
    <dc:creator>
     <cc:Agent>
      <dc:title>Matplotlib v3.10.8, https://matplotlib.org/</dc:title>
     </cc:Agent>
    </dc:creator>
   </cc:Work>
  </rdf:RDF>
 </metadata>
 <defs>
  <style type="text/css">*{stroke-linejoin: round; stroke-linecap: butt}</style>
 </defs>
 <g id="figure_1">
  <g id="patch_1">
   <path d="M 0 449.643125 
L 888.469375 449.643125 
L 888.469375 -0 
L 0 -0 
z
" style="fill: #ffffff"/>
  </g>
  <g id="axes_1">
   <g id="patch_2">
    <path d="M 53.634687 400.32 
L 393.286861 400.32 
L 393.286861 67.68 
L 53.634687 67.68 
z
" style="fill: #ffffff"/>
   </g>
   <g id="matplotlib.axis_1">
    <g id="xtick_1">
     <g id="line2d_1">
      <defs>
       <path id="mc85c27cf7b" d="M 0 0 
L 0 5 
" style="stroke: #000000"/>
      </defs>
      <g>
       <use xlink:href="#mc85c27cf7b" x="53.634687" y="400.32" style="stroke: #000000"/>
      </g>
     </g>
     <g id="text_1">
      <text style="font-size: 14px; font-family: 'Noto Sans CJK JP', 'Arial', 'DejaVu Sans', 'Liberation Sans', sans-serif; text-anchor: middle" x="53.634687" y="419.963125" transform="rotate(-0 53.634687 419.963125)">0</text>
     </g>
    </g>
    <g id="xtick_2">
     <g id="line2d_2">
      <g>
       <use xlink:href="#mc85c27cf7b" x="130.132925" y="400.32" style="stroke: #000000"/>
      </g>
     </g>
     <g id="text_2">
      <text style="font-size: 14px; font-family: 'Noto Sans CJK JP', 'Arial', 'DejaVu Sans', 'Liberation Sans', sans-serif; text-anchor: middle" x="130.132925" y="419.963125" transform="rotate(-0 130.132925 419.963125)">50</text>
     </g>
    </g>
    <g id="xtick_3">
     <g id="line2d_3">
      <g>
       <use xlink:href="#mc85c27cf7b" x="206.631162" y="400.32" style="stroke: #000000"/>
      </g>
     </g>
     <g id="text_3">
      <text style="font-size: 14px; font-family: 'Noto Sans CJK JP', 'Arial', 'DejaVu Sans', 'Liberation Sans', sans-serif; text-anchor: middle" x="206.631162" y="419.963125" transform="rotate(-0 206.631162 419.963125)">100</text>
     </g>
    </g>
    <g id="xtick_4">
     <g id="line2d_4">
      <g>
       <use xlink:href="#mc85c27cf7b" x="283.1294" y="400.32" style="stroke: #000000"/>
      </g>
     </g>
     <g id="text_4">
      <text style="font-size: 14px; font-family: 'Noto Sans CJK JP', 'Arial', 'DejaVu Sans', 'Liberation Sans', sans-serif; text-anchor: middle" x="283.1294" y="419.963125" transform="rotate(-0 283.1294 419.963125)">150</text>
     </g>
    </g>
    <g id="xtick_5">
     <g id="line2d_5">
      <g>
       <use xlink:href="#mc85c27cf7b" x="359.627637" y="400.32" style="stroke: #000000"/>
      </g>
     </g>
     <g id="text_5">
      <text style="font-size: 14px; font-family: 'Noto Sans CJK JP', 'Arial', 'DejaVu Sans', 'Liberation Sans', sans-serif; text-anchor: middle" x="359.627637" y="419.963125" transform="rotate(-0 359.627637 419.963125)">200</text>
     </g>
    </g>
    <g id="text_6">
     <text style="font-size: 14px; font-family: 'Noto Sans CJK JP', 'Arial', 'DejaVu Sans', 'Liberation Sans', sans-serif; text-anchor: middle" x="223.460774" y="438.943125" transform="rotate(-0 223.460774 438.943125)">板凳节段序号 (Segment index)</text>
    </g>
   </g>
   <g id="matplotlib.axis_2">
    <g id="ytick_1">
     <g id="line2d_6">
      <defs>
       <path id="m208b58e9e8" d="M 0 0 
L -5 0 
" style="stroke: #000000"/>
      </defs>
      <g>
       <use xlink:href="#m208b58e9e8" x="53.634687" y="386.46" style="stroke: #000000"/>
      </g>
     </g>
     <g id="text_7">
      <text style="font-size: 14px; font-family: 'Noto Sans CJK JP', 'Arial', 'DejaVu Sans', 'Liberation Sans', sans-serif; text-anchor: end" x="45.134687" y="392.031562" transform="rotate(-0 45.134687 392.031562)">0.0</text>
     </g>
    </g>
    <g id="ytick_2">
     <g id="line2d_7">
      <g>
       <use xlink:href="#m208b58e9e8" x="53.634687" y="331.02" style="stroke: #000000"/>
      </g>
     </g>
     <g id="text_8">
      <text style="font-size: 14px; font-family: 'Noto Sans CJK JP', 'Arial', 'DejaVu Sans', 'Liberation Sans', sans-serif; text-anchor: end" x="45.134687" y="336.591562" transform="rotate(-0 45.134687 336.591562)">0.2</text>
     </g>
    </g>
    <g id="ytick_3">
     <g id="line2d_8">
      <g>
       <use xlink:href="#m208b58e9e8" x="53.634687" y="275.58" style="stroke: #000000"/>
      </g>
     </g>
     <g id="text_9">
      <text style="font-size: 14px; font-family: 'Noto Sans CJK JP', 'Arial', 'DejaVu Sans', 'Liberation Sans', sans-serif; text-anchor: end" x="45.134687" y="281.151562" transform="rotate(-0 45.134687 281.151562)">0.4</text>
     </g>
    </g>
    <g id="ytick_4">
     <g id="line2d_9">
      <g>
       <use xlink:href="#m208b58e9e8" x="53.634687" y="220.14" style="stroke: #000000"/>
      </g>
     </g>
     <g id="text_10">
      <text style="font-size: 14px; font-family: 'Noto Sans CJK JP', 'Arial', 'DejaVu Sans', 'Liberation Sans', sans-serif; text-anchor: end" x="45.134687" y="225.711562" transform="rotate(-0 45.134687 225.711562)">0.6</text>
     </g>
    </g>
    <g id="ytick_5">
     <g id="line2d_10">
      <g>
       <use xlink:href="#m208b58e9e8" x="53.634687" y="164.7" style="stroke: #000000"/>
      </g>
     </g>
     <g id="text_11">
      <text style="font-size: 14px; font-family: 'Noto Sans CJK JP', 'Arial', 'DejaVu Sans', 'Liberation Sans', sans-serif; text-anchor: end" x="45.134687" y="170.271562" transform="rotate(-0 45.134687 170.271562)">0.8</text>
     </g>
    </g>
    <g id="ytick_6">
     <g id="line2d_11">
      <g>
       <use xlink:href="#m208b58e9e8" x="53.634687" y="109.26" style="stroke: #000000"/>
      </g>
     </g>
     <g id="text_12">
      <text style="font-size: 14px; font-family: 'Noto Sans CJK JP', 'Arial', 'DejaVu Sans', 'Liberation Sans', sans-serif; text-anchor: end" x="45.134687" y="114.831562" transform="rotate(-0 45.134687 114.831562)">1.0</text>
     </g>
    </g>
    <g id="text_13">
     <text style="font-size: 14px; font-family: 'Noto Sans CJK JP', 'Arial', 'DejaVu Sans', 'Liberation Sans', sans-serif; text-anchor: middle" x="18.49625" y="234" transform="rotate(-90 18.49625 234)">速度 (m/s)</text>
    </g>
   </g>
   <g id="line2d_12">
    <path d="M 53.634687 109.26 
L 55.164652 111.662437 
L 56.694617 109.805302 
L 277.009541 110.113297 
L 393.286861 110.475888 
L 393.286861 110.475888 
" clip-path="url(#p3008b4af5a)" style="fill: none; stroke: #0f4d92; stroke-opacity: 0.9; stroke-width: 2; stroke-linecap: square"/>
   </g>
   <g id="line2d_13">
    <path d="M 53.634687 109.26 
L 55.164652 112.156612 
L 56.694617 109.917599 
L 226.520704 110.249726 
L 321.378518 110.638873 
L 381.047143 111.092253 
L 393.286861 111.224822 
L 393.286861 111.224822 
" clip-path="url(#p3008b4af5a)" style="fill: none; stroke: #4a90a4; stroke-opacity: 0.9; stroke-width: 2; stroke-linecap: square"/>
   </g>
   <g id="line2d_14">
    <path d="M 53.634687 109.26 
L 55.164652 112.906743 
L 56.694617 110.088143 
L 179.091797 110.450962 
L 252.530105 110.875922 
L 299.959012 111.360145 
L 332.088272 111.895431 
L 355.037743 112.482487 
L 371.867355 113.112203 
L 385.637038 113.846009 
L 393.286861 114.38924 
L 393.286861 114.38924 
" clip-path="url(#p3008b4af5a)" style="fill: none; stroke: #e8a87c; stroke-opacity: 0.9; stroke-width: 2; stroke-linecap: square"/>
   </g>
   <g id="line2d_15">
    <path d="M 53.634687 109.26 
L 55.164652 114.1812 
L 56.694617 110.378121 
L 136.252784 110.786341 
L 186.741621 111.246927 
L 221.93081 111.776483 
L 246.410246 112.349691 
L 264.769823 112.986808 
L 278.539505 113.669246 
L 289.249259 114.402228 
L 298.429047 115.257625 
L 306.078871 116.224052 
L 312.19873 117.256051 
L 316.788624 118.257278 
L 321.378518 119.547207 
L 324.438448 120.636174 
L 327.498377 121.985315 
L 330.558307 123.701349 
L 332.088272 124.747549 
L 333.618236 125.959142 
L 335.148201 127.379135 
L 336.678166 129.067016 
L 338.208131 131.107561 
L 339.738095 133.626045 
L 341.26806 136.816071 
L 342.798025 140.994454 
L 344.327989 146.720454 
L 345.857954 155.092078 
L 347.387919 168.647417 
L 348.917884 195.305141 
L 350.447848 350.637876 
L 351.977813 326.728621 
L 353.507778 224.588542 
L 355.037743 386.46 
L 393.286861 386.46 
L 393.286861 386.46 
" clip-path="url(#p3008b4af5a)" style="fill: none; stroke: #c38d9e; stroke-opacity: 0.9; stroke-width: 2; stroke-linecap: square"/>
   </g>
   <g id="line2d_16">
    <path d="M 53.634687 109.26 
L 55.164652 116.825258 
L 56.694617 110.980617 
L 99.53363 111.470945 
L 130.132925 112.036433 
L 151.552431 112.642421 
L 166.852079 113.267667 
L 179.091797 113.963807 
L 188.271585 114.669064 
L 195.921409 115.442168 
L 202.041268 116.24116 
L 208.161127 117.278643 
L 212.751021 118.285926 
L 217.340915 119.584737 
L 220.400845 120.682152 
L 223.460774 122.042973 
L 226.520704 123.77582 
L 228.050669 124.833354 
L 229.580633 126.059106 
L 231.110598 127.497115 
L 232.640563 129.208424 
L 234.170528 131.280244 
L 235.700492 133.841843 
L 237.230457 137.093766 
L 238.760422 141.365836 
L 240.290387 147.244246 
L 241.820351 155.891343 
L 243.350316 170.037942 
L 244.880281 198.505257 
L 246.410246 349.952403 
L 247.94021 324.829644 
L 249.470175 212.754144 
L 251.00014 386.46 
L 393.286861 386.46 
L 393.286861 386.46 
" clip-path="url(#p3008b4af5a)" style="fill: none; stroke: #7f7f7f; stroke-opacity: 0.9; stroke-width: 2; stroke-linecap: square"/>
   </g>
   <g id="line2d_17">
    <path d="M 53.634687 109.26 
L 393.286861 109.26 
" clip-path="url(#p3008b4af5a)" style="fill: none; stroke-dasharray: 3.7,1.6; stroke-dashoffset: 0; stroke: #d0d0d0"/>
   </g>
   <g id="patch_3">
    <path d="M 53.634687 400.32 
L 53.634687 67.68 
" style="fill: none; stroke: #000000; stroke-width: 1.2; stroke-linejoin: miter; stroke-linecap: square"/>
   </g>
   <g id="patch_4">
    <path d="M 53.634687 400.32 
L 393.286861 400.32 
" style="fill: none; stroke: #000000; stroke-width: 1.2; stroke-linejoin: miter; stroke-linecap: square"/>
   </g>
   <g id="text_14">
    <text style="font-size: 10px; font-family: 'Noto Sans CJK JP', 'Arial', 'DejaVu Sans', 'Liberation Sans', sans-serif; text-anchor: start; fill: #7f7f7f" x="275.403078" y="100.944" transform="rotate(-0 275.403078 100.944)">龙头速度 = 1.0 m/s</text>
   </g>
   <g id="text_15">
    <text style="font-weight: 700; font-size: 16px; font-family: 'Noto Sans CJK JP', 'Arial', 'DejaVu Sans', 'Liberation Sans', sans-serif; text-anchor: start" x="53.634687" y="61.68" transform="rotate(-0 53.634687 61.68)">a  链上速度分布</text>
   </g>
   <g id="legend_1">
    <g id="line2d_18">
     <path d="M 304.040611 83.83125 
L 316.040611 83.83125 
L 328.040611 83.83125 
" style="fill: none; stroke: #0f4d92; stroke-opacity: 0.9; stroke-width: 2; stroke-linecap: square"/>
    </g>
    <g id="text_16">
     <text style="font-size: 12px; font-family: 'Noto Sans CJK JP', 'Arial', 'DejaVu Sans', 'Liberation Sans', sans-serif; text-anchor: start" x="337.640611" y="88.03125" transform="rotate(-0 337.640611 88.03125)">t = 0 s</text>
    </g>
    <g id="line2d_19">
     <path d="M 304.040611 102.13125 
L 316.040611 102.13125 
L 328.040611 102.13125 
" style="fill: none; stroke: #4a90a4; stroke-opacity: 0.9; stroke-width: 2; stroke-linecap: square"/>
    </g>
    <g id="text_17">
     <text style="font-size: 12px; font-family: 'Noto Sans CJK JP', 'Arial', 'DejaVu Sans', 'Liberation Sans', sans-serif; text-anchor: start" x="337.640611" y="106.33125" transform="rotate(-0 337.640611 106.33125)">t = 75 s</text>
    </g>
    <g id="line2d_20">
     <path d="M 304.040611 120.43125 
L 316.040611 120.43125 
L 328.040611 120.43125 
" style="fill: none; stroke: #e8a87c; stroke-opacity: 0.9; stroke-width: 2; stroke-linecap: square"/>
    </g>
    <g id="text_18">
     <text style="font-size: 12px; font-family: 'Noto Sans CJK JP', 'Arial', 'DejaVu Sans', 'Liberation Sans', sans-serif; text-anchor: start" x="337.640611" y="124.63125" transform="rotate(-0 337.640611 124.63125)">t = 150 s</text>
    </g>
    <g id="line2d_21">
     <path d="M 304.040611 138.73125 
L 316.040611 138.73125 
L 328.040611 138.73125 
" style="fill: none; stroke: #c38d9e; stroke-opacity: 0.9; stroke-width: 2; stroke-linecap: square"/>
    </g>
    <g id="text_19">
     <text style="font-size: 12px; font-family: 'Noto Sans CJK JP', 'Arial', 'DejaVu Sans', 'Liberation Sans', sans-serif; text-anchor: start" x="337.640611" y="142.93125" transform="rotate(-0 337.640611 142.93125)">t = 225 s</text>
    </g>
    <g id="line2d_22">
     <path d="M 304.040611 157.03125 
L 316.040611 157.03125 
L 328.040611 157.03125 
" style="fill: none; stroke: #7f7f7f; stroke-opacity: 0.9; stroke-width: 2; stroke-linecap: square"/>
    </g>
    <g id="text_20">
     <text style="font-size: 12px; font-family: 'Noto Sans CJK JP', 'Arial', 'DejaVu Sans', 'Liberation Sans', sans-serif; text-anchor: start" x="337.640611" y="161.23125" transform="rotate(-0 337.640611 161.23125)">t = 300 s</text>
    </g>
   </g>
  </g>
  <g id="axes_2">
   <g id="patch_5">
    <path d="M 495.182514 400.32 
L 834.834688 400.32 
L 834.834688 67.68 
L 495.182514 67.68 
z
" style="fill: #ffffff"/>
   </g>
   <g id="matplotlib.axis_3">
    <g id="xtick_6">
     <g id="line2d_23">
      <g>
       <use xlink:href="#mc85c27cf7b" x="510.621249" y="400.32" style="stroke: #000000"/>
      </g>
     </g>
     <g id="text_21">
      <text style="font-size: 14px; font-family: 'Noto Sans CJK JP', 'Arial', 'DejaVu Sans', 'Liberation Sans', sans-serif; text-anchor: middle" x="510.621249" y="419.963125" transform="rotate(-0 510.621249 419.963125)">0</text>
     </g>
    </g>
    <g id="xtick_7">
     <g id="line2d_24">
      <g>
       <use xlink:href="#mc85c27cf7b" x="562.083699" y="400.32" style="stroke: #000000"/>
      </g>
     </g>
     <g id="text_22">
      <text style="font-size: 14px; font-family: 'Noto Sans CJK JP', 'Arial', 'DejaVu Sans', 'Liberation Sans', sans-serif; text-anchor: middle" x="562.083699" y="419.963125" transform="rotate(-0 562.083699 419.963125)">50</text>
     </g>
    </g>
    <g id="xtick_8">
     <g id="line2d_25">
      <g>
       <use xlink:href="#mc85c27cf7b" x="613.54615" y="400.32" style="stroke: #000000"/>
      </g>
     </g>
     <g id="text_23">
      <text style="font-size: 14px; font-family: 'Noto Sans CJK JP', 'Arial', 'DejaVu Sans', 'Liberation Sans', sans-serif; text-anchor: middle" x="613.54615" y="419.963125" transform="rotate(-0 613.54615 419.963125)">100</text>
     </g>
    </g>
    <g id="xtick_9">
     <g id="line2d_26">
      <g>
       <use xlink:href="#mc85c27cf7b" x="665.008601" y="400.32" style="stroke: #000000"/>
      </g>
     </g>
     <g id="text_24">
      <text style="font-size: 14px; font-family: 'Noto Sans CJK JP', 'Arial', 'DejaVu Sans', 'Liberation Sans', sans-serif; text-anchor: middle" x="665.008601" y="419.963125" transform="rotate(-0 665.008601 419.963125)">150</text>
     </g>
    </g>
    <g id="xtick_10">
     <g id="line2d_27">
      <g>
       <use xlink:href="#mc85c27cf7b" x="716.471051" y="400.32" style="stroke: #000000"/>
      </g>
     </g>
     <g id="text_25">
      <text style="font-size: 14px; font-family: 'Noto Sans CJK JP', 'Arial', 'DejaVu Sans', 'Liberation Sans', sans-serif; text-anchor: middle" x="716.471051" y="419.963125" transform="rotate(-0 716.471051 419.963125)">200</text>
     </g>
    </g>
    <g id="xtick_11">
     <g id="line2d_28">
      <g>
       <use xlink:href="#mc85c27cf7b" x="767.933502" y="400.32" style="stroke: #000000"/>
      </g>
     </g>
     <g id="text_26">
      <text style="font-size: 14px; font-family: 'Noto Sans CJK JP', 'Arial', 'DejaVu Sans', 'Liberation Sans', sans-serif; text-anchor: middle" x="767.933502" y="419.963125" transform="rotate(-0 767.933502 419.963125)">250</text>
     </g>
    </g>
    <g id="xtick_12">
     <g id="line2d_29">
      <g>
       <use xlink:href="#mc85c27cf7b" x="819.395952" y="400.32" style="stroke: #000000"/>
      </g>
     </g>
     <g id="text_27">
      <text style="font-size: 14px; font-family: 'Noto Sans CJK JP', 'Arial', 'DejaVu Sans', 'Liberation Sans', sans-serif; text-anchor: middle" x="819.395952" y="419.963125" transform="rotate(-0 819.395952 419.963125)">300</text>
     </g>
    </g>
    <g id="text_28">
     <text style="font-size: 14px; font-family: 'Noto Sans CJK JP', 'Arial', 'DejaVu Sans', 'Liberation Sans', sans-serif; text-anchor: middle" x="665.008601" y="438.39625" transform="rotate(-0 665.008601 438.39625)">时间 (s)</text>
    </g>
   </g>
   <g id="matplotlib.axis_4">
    <g id="ytick_7">
     <g id="line2d_30">
      <g>
       <use xlink:href="#m208b58e9e8" x="495.182514" y="400.32" style="stroke: #000000"/>
      </g>
     </g>
     <g id="text_29">
      <text style="font-size: 14px; font-family: 'Noto Sans CJK JP', 'Arial', 'DejaVu Sans', 'Liberation Sans', sans-serif; text-anchor: end; fill: #0f4d92" x="486.682514" y="405.891562" transform="rotate(-0 486.682514 405.891562)">0</text>
     </g>
    </g>
    <g id="ytick_8">
     <g id="line2d_31">
      <g>
       <use xlink:href="#m208b58e9e8" x="495.182514" y="331.592727" style="stroke: #000000"/>
      </g>
     </g>
     <g id="text_30">
      <text style="font-size: 14px; font-family: 'Noto Sans CJK JP', 'Arial', 'DejaVu Sans', 'Liberation Sans', sans-serif; text-anchor: end; fill: #0f4d92" x="486.682514" y="337.16429" transform="rotate(-0 486.682514 337.16429)">2</text>
     </g>
    </g>
    <g id="ytick_9">
     <g id="line2d_32">
      <g>
       <use xlink:href="#m208b58e9e8" x="495.182514" y="262.865455" style="stroke: #000000"/>
      </g>
     </g>
     <g id="text_31">
      <text style="font-size: 14px; font-family: 'Noto Sans CJK JP', 'Arial', 'DejaVu Sans', 'Liberation Sans', sans-serif; text-anchor: end; fill: #0f4d92" x="486.682514" y="268.437017" transform="rotate(-0 486.682514 268.437017)">4</text>
     </g>
    </g>
    <g id="ytick_10">
     <g id="line2d_33">
      <g>
       <use xlink:href="#m208b58e9e8" x="495.182514" y="194.138182" style="stroke: #000000"/>
      </g>
     </g>
     <g id="text_32">
      <text style="font-size: 14px; font-family: 'Noto Sans CJK JP', 'Arial', 'DejaVu Sans', 'Liberation Sans', sans-serif; text-anchor: end; fill: #0f4d92" x="486.682514" y="199.709744" transform="rotate(-0 486.682514 199.709744)">6</text>
     </g>
    </g>
    <g id="ytick_11">
     <g id="line2d_34">
      <g>
       <use xlink:href="#m208b58e9e8" x="495.182514" y="125.410909" style="stroke: #000000"/>
      </g>
     </g>
     <g id="text_33">
      <text style="font-size: 14px; font-family: 'Noto Sans CJK JP', 'Arial', 'DejaVu Sans', 'Liberation Sans', sans-serif; text-anchor: end; fill: #0f4d92" x="486.682514" y="130.982472" transform="rotate(-0 486.682514 130.982472)">8</text>
     </g>
    </g>
    <g id="text_34">
     <text style="font-size: 14px; font-family: 'Noto Sans CJK JP', 'Arial', 'DejaVu Sans', 'Liberation Sans', sans-serif; text-anchor: middle; fill: #0f4d92" x="471.705639" y="234" transform="rotate(-90 471.705639 234)">龙头到中心半径 (m)</text>
    </g>
   </g>
   <g id="line2d_35">
    <path d="M 510.621249 97.92 
L 535.323225 106.237688 
L 558.995952 114.435776 
L 581.639431 122.503677 
L 603.25366 130.429715 
L 624.867889 138.595644 
L 645.452869 146.616929 
L 665.008601 154.479411 
L 683.535083 162.167364 
L 701.032316 169.663337 
L 717.5003 176.948003 
L 733.968284 184.47834 
L 749.40702 191.7848 
L 763.816506 198.843026 
L 778.225992 206.157606 
L 791.606229 213.205508 
L 803.957217 219.955473 
L 816.308205 226.967993 
L 819.395952 228.765892 
L 819.395952 228.765892 
" clip-path="url(#pf76b657323)" style="fill: none; stroke: #0f4d92; stroke-width: 2.5; stroke-linecap: square"/>
   </g>
   <g id="patch_6">
    <path d="M 495.182514 400.32 
L 495.182514 67.68 
" style="fill: none; stroke: #000000; stroke-width: 1.2; stroke-linejoin: miter; stroke-linecap: square"/>
   </g>
   <g id="patch_7">
    <path d="M 495.182514 400.32 
L 834.834688 400.32 
" style="fill: none; stroke: #000000; stroke-width: 1.2; stroke-linejoin: miter; stroke-linecap: square"/>
   </g>
   <g id="text_35">
    <text style="font-weight: 700; font-size: 16px; font-family: 'Noto Sans CJK JP', 'Arial', 'DejaVu Sans', 'Liberation Sans', sans-serif; text-anchor: start" x="495.182514" y="61.68" transform="rotate(-0 495.182514 61.68)">b  龙头半径与龙尾速度</text>
   </g>
   <g id="legend_2">
    <g id="line2d_36">
     <path d="M 742.434688 83.83125 
L 754.434688 83.83125 
L 766.434688 83.83125 
" style="fill: none; stroke: #0f4d92; stroke-width: 2.5; stroke-linecap: square"/>
    </g>
    <g id="text_36">
     <text style="font-size: 12px; font-family: 'Noto Sans CJK JP', 'Arial', 'DejaVu Sans', 'Liberation Sans', sans-serif; text-anchor: start" x="776.034688" y="88.03125" transform="rotate(-0 776.034688 88.03125)">龙头半径</text>
    </g>
    <g id="line2d_37">
     <path d="M 742.434688 102.13125 
L 754.434688 102.13125 
L 766.434688 102.13125 
" style="fill: none; stroke-dasharray: 9.25,4; stroke-dashoffset: 0; stroke: #e8a87c; stroke-width: 2.5"/>
    </g>
    <g id="text_37">
     <text style="font-size: 12px; font-family: 'Noto Sans CJK JP', 'Arial', 'DejaVu Sans', 'Liberation Sans', sans-serif; text-anchor: start" x="776.034688" y="106.33125" transform="rotate(-0 776.034688 106.33125)">龙尾速度</text>
    </g>
   </g>
  </g>
  <g id="axes_3">
   <g id="matplotlib.axis_5">
    <g id="ytick_12">
     <g id="line2d_38">
      <defs>
       <path id="mc370ac44fd" d="M 0 0 
L 5 0 
" style="stroke: #000000"/>
      </defs>
      <g>
       <use xlink:href="#mc370ac44fd" x="834.834688" y="386.46" style="stroke: #000000"/>
      </g>
     </g>
     <g id="text_38">
      <text style="font-size: 14px; font-family: 'Noto Sans CJK JP', 'Arial', 'DejaVu Sans', 'Liberation Sans', sans-serif; text-anchor: start; fill: #e8a87c" x="843.334688" y="392.031562" transform="rotate(-0 843.334688 392.031562)">0.0</text>
     </g>
    </g>
    <g id="ytick_13">
     <g id="line2d_39">
      <g>
       <use xlink:href="#mc370ac44fd" x="834.834688" y="331.02" style="stroke: #000000"/>
      </g>
     </g>
     <g id="text_39">
      <text style="font-size: 14px; font-family: 'Noto Sans CJK JP', 'Arial', 'DejaVu Sans', 'Liberation Sans', sans-serif; text-anchor: start; fill: #e8a87c" x="843.334688" y="336.591562" transform="rotate(-0 843.334688 336.591562)">0.2</text>
     </g>
    </g>
    <g id="ytick_14">
     <g id="line2d_40">
      <g>
       <use xlink:href="#mc370ac44fd" x="834.834688" y="275.58" style="stroke: #000000"/>
      </g>
     </g>
     <g id="text_40">
      <text style="font-size: 14px; font-family: 'Noto Sans CJK JP', 'Arial', 'DejaVu Sans', 'Liberation Sans', sans-serif; text-anchor: start; fill: #e8a87c" x="843.334688" y="281.151562" transform="rotate(-0 843.334688 281.151562)">0.4</text>
     </g>
    </g>
    <g id="ytick_15">
     <g id="line2d_41">
      <g>
       <use xlink:href="#mc370ac44fd" x="834.834688" y="220.14" style="stroke: #000000"/>
      </g>
     </g>
     <g id="text_41">
      <text style="font-size: 14px; font-family: 'Noto Sans CJK JP', 'Arial', 'DejaVu Sans', 'Liberation Sans', sans-serif; text-anchor: start; fill: #e8a87c" x="843.334688" y="225.711562" transform="rotate(-0 843.334688 225.711562)">0.6</text>
     </g>
    </g>
    <g id="ytick_16">
     <g id="line2d_42">
      <g>
       <use xlink:href="#mc370ac44fd" x="834.834688" y="164.7" style="stroke: #000000"/>
      </g>
     </g>
     <g id="text_42">
      <text style="font-size: 14px; font-family: 'Noto Sans CJK JP', 'Arial', 'DejaVu Sans', 'Liberation Sans', sans-serif; text-anchor: start; fill: #e8a87c" x="843.334688" y="170.271562" transform="rotate(-0 843.334688 170.271562)">0.8</text>
     </g>
    </g>
    <g id="ytick_17">
     <g id="line2d_43">
      <g>
       <use xlink:href="#mc370ac44fd" x="834.834688" y="109.26" style="stroke: #000000"/>
      </g>
     </g>
     <g id="text_43">
      <text style="font-size: 14px; font-family: 'Noto Sans CJK JP', 'Arial', 'DejaVu Sans', 'Liberation Sans', sans-serif; text-anchor: start; fill: #e8a87c" x="843.334688" y="114.831562" transform="rotate(-0 843.334688 114.831562)">1.0</text>
     </g>
    </g>
    <g id="text_44">
     <text style="font-size: 14px; font-family: 'Noto Sans CJK JP', 'Arial', 'DejaVu Sans', 'Liberation Sans', sans-serif; text-anchor: middle; fill: #e8a87c" x="878.0625" y="234" transform="rotate(-90 878.0625 234)">龙尾速度 (m/s)</text>
    </g>
   </g>
   <g id="line2d_44">
    <path d="M 510.621249 110.475888 
L 563.112948 110.901241 
L 597.078166 111.381728 
L 620.750893 111.925992 
L 637.218877 112.50549 
L 649.569865 113.138146 
L 658.833106 113.802784 
L 667.067099 114.620002 
L 673.242593 115.456892 
L 678.388838 116.384897 
L 682.505834 117.355911 
L 685.593581 118.278819 
L 688.681328 119.440884 
L 690.739826 120.398992 
L 692.798324 121.55787 
L 694.856822 122.988519 
L 696.91532 124.800167 
L 697.944569 125.90028 
L 698.973818 127.170206 
L 700.003067 128.65301 
L 701.032316 130.407827 
L 702.061565 132.518213 
L 703.090814 135.106368 
L 704.120063 138.35878 
L 705.149312 142.575799 
L 706.178561 148.276704 
L 707.20781 156.452054 
L 708.237059 169.293572 
L 709.266308 193.104266 
L 710.295557 268.625658 
L 711.324806 268.625658 
L 712.354055 299.632311 
L 713.383304 340.130031 
L 714.412553 386.46 
L 819.395952 386.46 
L 819.395952 386.46 
" clip-path="url(#pf76b657323)" style="fill: none; stroke-dasharray: 9.25,4; stroke-dashoffset: 0; stroke: #e8a87c; stroke-width: 2.5"/>
   </g>
   <g id="patch_8">
    <path d="M 495.182514 400.32 
L 495.182514 67.68 
" style="fill: none; stroke: #000000; stroke-width: 1.2; stroke-linejoin: miter; stroke-linecap: square"/>
   </g>
   <g id="patch_9">
    <path d="M 495.182514 400.32 
L 834.834688 400.32 
" style="fill: none; stroke: #000000; stroke-width: 1.2; stroke-linejoin: miter; stroke-linecap: square"/>
   </g>
  </g>
  <g id="text_45">
   <text style="font-weight: 700; font-size: 16px; font-family: 'Noto Sans CJK JP', 'Arial', 'DejaVu Sans', 'Liberation Sans', sans-serif; text-anchor: middle" x="431.634687" y="20.815" transform="rotate(-0 431.634687 20.815)">Figure 2 | 板凳龙速度传播分析 (Velocity Propagation Analysis)</text>
  </g>
 </g>
 <defs>
  <clipPath id="p3008b4af5a">
   <rect x="53.634687" y="67.68" width="339.652174" height="332.64"/>
  </clipPath>
  <clipPath id="pf76b657323">
   <rect x="495.182514" y="67.68" width="339.652174" height="332.64"/>
  </clipPath>
 </defs>
</svg>
