<?xml version="1.0" encoding="utf-8" standalone="no"?>
<!DOCTYPE svg PUBLIC "-//W3C//DTD SVG 1.1//EN"
  "http://www.w3.org/Graphics/SVG/1.1/DTD/svg11.dtd">
<svg xmlns:xlink="http://www.w3.org/1999/xlink" width="732.757855pt" height="346.8565pt" viewBox="0 0 732.757855 346.8565" xmlns="http://www.w3.org/2000/svg" version="1.1">
 <metadata>
  <rdf:RDF xmlns:dc="http://purl.org/dc/elements/1.1/" xmlns:cc="http://creativecommons.org/ns#" xmlns:rdf="http://www.w3.org/1999/02/22-rdf-syntax-ns#">
   <cc:Work>
    <dc:type rdf:resource="http://purl.org/dc/dcmitype/StillImage"/>
    <dc:date>2026-05-04T02:43:28.335295</dc:date>
    <dc:format>image/svg+xml</dc:format>
    <dc:creator>
     <cc:Agent>
      <dc:title>Matplotlib v3.10.8, https://matplotlib.org/</dc:title>
     </cc:Agent>
    </dc:creator>
   </cc:Work>
  </rdf:RDF>
 </metadata>
 <defs>
  <style type="text/css">*{stroke-linejoin: round; stroke-linecap: butt}</style>
 </defs>
 <g id="figure_1">
  <g id="patch_1">
   <path d="M 0 346.8565 
L 732.757855 346.8565 
L 732.757855 0 
L 0 0 
z
" style="fill: #ffffff"/>
  </g>
  <g id="axes_1">
   <g id="patch_2">
    <path d="M 39.052813 303.493375 
L 330.183247 303.493375 
L 330.183247 26.293375 
L 39.052813 26.293375 
z
" style="fill: #ffffff"/>
   </g>
   <g id="matplotlib.axis_1">
    <g id="xtick_1">
     <g id="line2d_1">
      <defs>
       <path id="m68df20d39f" d="M 0 0 
L 0 3.5 
" style="stroke: #000000; stroke-width: 0.8"/>
      </defs>
      <g>
       <use xlink:href="#m68df20d39f" x="52.557496" y="303.493375" style="stroke: #000000; stroke-width: 0.8"/>
      </g>
     </g>
     <g id="text_1">
      <text style="font-size: 13px; font-family: 'Arial', 'DejaVu Sans', 'Liberation Sans', sans-serif; text-anchor: middle" x="52.557496" y="320.371344" transform="rotate(-0 52.557496 320.371344)">2000</text>
     </g>
    </g>
    <g id="xtick_2">
     <g id="line2d_2">
      <g>
       <use xlink:href="#m68df20d39f" x="98.435185" y="303.493375" style="stroke: #000000; stroke-width: 0.8"/>
      </g>
     </g>
     <g id="text_2">
      <text style="font-size: 13px; font-family: 'Arial', 'DejaVu Sans', 'Liberation Sans', sans-serif; text-anchor: middle" x="98.435185" y="320.371344" transform="rotate(-0 98.435185 320.371344)">4000</text>
     </g>
    </g>
    <g id="xtick_3">
     <g id="line2d_3">
      <g>
       <use xlink:href="#m68df20d39f" x="144.312874" y="303.493375" style="stroke: #000000; stroke-width: 0.8"/>
      </g>
     </g>
     <g id="text_3">
      <text style="font-size: 13px; font-family: 'Arial', 'DejaVu Sans', 'Liberation Sans', sans-serif; text-anchor: middle" x="144.312874" y="320.371344" transform="rotate(-0 144.312874 320.371344)">6000</text>
     </g>
    </g>
    <g id="xtick_4">
     <g id="line2d_4">
      <g>
       <use xlink:href="#m68df20d39f" x="190.190563" y="303.493375" style="stroke: #000000; stroke-width: 0.8"/>
      </g>
     </g>
     <g id="text_4">
      <text style="font-size: 13px; font-family: 'Arial', 'DejaVu Sans', 'Liberation Sans', sans-serif; text-anchor: middle" x="190.190563" y="320.371344" transform="rotate(-0 190.190563 320.371344)">8000</text>
     </g>
    </g>
    <g id="xtick_5">
     <g id="line2d_5">
      <g>
       <use xlink:href="#m68df20d39f" x="236.068253" y="303.493375" style="stroke: #000000; stroke-width: 0.8"/>
      </g>
     </g>
     <g id="text_5">
      <text style="font-size: 13px; font-family: 'Arial', 'DejaVu Sans', 'Liberation Sans', sans-serif; text-anchor: middle" x="236.068253" y="320.371344" transform="rotate(-0 236.068253 320.371344)">10000</text>
     </g>
    </g>
    <g id="xtick_6">
     <g id="line2d_6">
      <g>
       <use xlink:href="#m68df20d39f" x="281.945942" y="303.493375" style="stroke: #000000; stroke-width: 0.8"/>
      </g>
     </g>
     <g id="text_6">
      <text style="font-size: 13px; font-family: 'Arial', 'DejaVu Sans', 'Liberation Sans', sans-serif; text-anchor: middle" x="281.945942" y="320.371344" transform="rotate(-0 281.945942 320.371344)">12000</text>
     </g>
    </g>
    <g id="xtick_7">
     <g id="line2d_7">
      <g>
       <use xlink:href="#m68df20d39f" x="327.823631" y="303.493375" style="stroke: #000000; stroke-width: 0.8"/>
      </g>
     </g>
     <g id="text_7">
      <text style="font-size: 13px; font-family: 'Arial', 'DejaVu Sans', 'Liberation Sans', sans-serif; text-anchor: middle" x="327.823631" y="320.371344" transform="rotate(-0 327.823631 320.371344)">14000</text>
     </g>
    </g>
    <g id="text_8">
     <text style="font-size: 13px; font-family: 'Arial', 'DejaVu Sans', 'Liberation Sans', sans-serif; text-anchor: middle" x="184.61803" y="336.952906" transform="rotate(-0 184.61803 336.952906)">UAV-Missile distance (m)</text>
    </g>
   </g>
   <g id="matplotlib.axis_2">
    <g id="ytick_1">
     <g id="line2d_8">
      <defs>
       <path id="maccb02b395" d="M 0 0 
L -3.5 0 
" style="stroke: #000000; stroke-width: 0.8"/>
      </defs>
      <g>
       <use xlink:href="#maccb02b395" x="39.052813" y="290.893375" style="stroke: #000000; stroke-width: 0.8"/>
      </g>
     </g>
     <g id="text_9">
      <text style="font-size: 13px; font-family: 'Arial', 'DejaVu Sans', 'Liberation Sans', sans-serif; text-anchor: end" x="32.052813" y="295.832359" transform="rotate(-0 32.052813 295.832359)">0</text>
     </g>
    </g>
    <g id="ytick_2">
     <g id="line2d_9">
      <g>
       <use xlink:href="#maccb02b395" x="39.052813" y="259.230364" style="stroke: #000000; stroke-width: 0.8"/>
      </g>
     </g>
     <g id="text_10">
      <text style="font-size: 13px; font-family: 'Arial', 'DejaVu Sans', 'Liberation Sans', sans-serif; text-anchor: end" x="32.052813" y="264.169348" transform="rotate(-0 32.052813 264.169348)">1</text>
     </g>
    </g>
    <g id="ytick_3">
     <g id="line2d_10">
      <g>
       <use xlink:href="#maccb02b395" x="39.052813" y="227.567352" style="stroke: #000000; stroke-width: 0.8"/>
      </g>
     </g>
     <g id="text_11">
      <text style="font-size: 13px; font-family: 'Arial', 'DejaVu Sans', 'Liberation Sans', sans-serif; text-anchor: end" x="32.052813" y="232.506337" transform="rotate(-0 32.052813 232.506337)">2</text>
     </g>
    </g>
    <g id="ytick_4">
     <g id="line2d_11">
      <g>
       <use xlink:href="#maccb02b395" x="39.052813" y="195.904341" style="stroke: #000000; stroke-width: 0.8"/>
      </g>
     </g>
     <g id="text_12">
      <text style="font-size: 13px; font-family: 'Arial', 'DejaVu Sans', 'Liberation Sans', sans-serif; text-anchor: end" x="32.052813" y="200.843325" transform="rotate(-0 32.052813 200.843325)">3</text>
     </g>
    </g>
    <g id="ytick_5">
     <g id="line2d_12">
      <g>
       <use xlink:href="#maccb02b395" x="39.052813" y="164.24133" style="stroke: #000000; stroke-width: 0.8"/>
      </g>
     </g>
     <g id="text_13">
      <text style="font-size: 13px; font-family: 'Arial', 'DejaVu Sans', 'Liberation Sans', sans-serif; text-anchor: end" x="32.052813" y="169.180314" transform="rotate(-0 32.052813 169.180314)">4</text>
     </g>
    </g>
    <g id="ytick_6">
     <g id="line2d_13">
      <g>
       <use xlink:href="#maccb02b395" x="39.052813" y="132.578318" style="stroke: #000000; stroke-width: 0.8"/>
      </g>
     </g>
     <g id="text_14">
      <text style="font-size: 13px; font-family: 'Arial', 'DejaVu Sans', 'Liberation Sans', sans-serif; text-anchor: end" x="32.052813" y="137.517303" transform="rotate(-0 32.052813 137.517303)">5</text>
     </g>
    </g>
    <g id="ytick_7">
     <g id="line2d_14">
      <g>
       <use xlink:href="#maccb02b395" x="39.052813" y="100.915307" style="stroke: #000000; stroke-width: 0.8"/>
      </g>
     </g>
     <g id="text_15">
      <text style="font-size: 13px; font-family: 'Arial', 'DejaVu Sans', 'Liberation Sans', sans-serif; text-anchor: end" x="32.052813" y="105.854291" transform="rotate(-0 32.052813 105.854291)">6</text>
     </g>
    </g>
    <g id="ytick_8">
     <g id="line2d_15">
      <g>
       <use xlink:href="#maccb02b395" x="39.052813" y="69.252296" style="stroke: #000000; stroke-width: 0.8"/>
      </g>
     </g>
     <g id="text_16">
      <text style="font-size: 13px; font-family: 'Arial', 'DejaVu Sans', 'Liberation Sans', sans-serif; text-anchor: end" x="32.052813" y="74.19128" transform="rotate(-0 32.052813 74.19128)">7</text>
     </g>
    </g>
    <g id="ytick_9">
     <g id="line2d_16">
      <g>
       <use xlink:href="#maccb02b395" x="39.052813" y="37.589284" style="stroke: #000000; stroke-width: 0.8"/>
      </g>
     </g>
     <g id="text_17">
      <text style="font-size: 13px; font-family: 'Arial', 'DejaVu Sans', 'Liberation Sans', sans-serif; text-anchor: end" x="32.052813" y="42.528269" transform="rotate(-0 32.052813 42.528269)">8</text>
     </g>
    </g>
    <g id="text_18">
     <text style="font-size: 13px; font-family: 'Arial', 'DejaVu Sans', 'Liberation Sans', sans-serif; text-anchor: middle" x="17.077969" y="164.893375" transform="rotate(-90 17.077969 164.893375)">Coverage duration (s)</text>
    </g>
   </g>
   <g id="line2d_17">
    <path d="M 52.286014 38.893375 
L 54.959388 41.368957 
L 57.632762 43.84454 
L 60.306136 46.320122 
L 62.97951 48.795704 
L 65.652884 51.271287 
L 68.326258 53.746869 
L 70.999632 56.222451 
L 73.673007 58.698033 
L 76.346381 61.173616 
L 79.019755 63.649198 
L 81.693129 66.12478 
L 84.366503 68.600363 
L 87.039877 71.075945 
L 89.713251 73.551527 
L 92.386625 76.02711 
L 95.059999 78.502692 
L 97.733373 80.978274 
L 100.406747 83.453856 
L 103.080121 85.929439 
L 105.753495 88.405021 
L 108.426869 90.880603 
L 111.100243 93.356186 
L 113.773617 95.831768 
L 116.446991 98.30735 
L 119.120366 100.782933 
L 121.79374 103.258515 
L 124.467114 105.734097 
L 127.140488 108.209679 
L 129.813862 110.685262 
L 132.487236 113.160844 
L 135.16061 115.636426 
L 137.833984 118.112009 
L 140.507358 120.587591 
L 143.180732 123.063173 
L 145.854106 125.538756 
L 148.52748 128.014338 
L 151.200854 130.48992 
L 153.874228 132.965502 
L 156.547602 135.441085 
L 159.220976 137.916667 
L 161.89435 140.392249 
L 164.567724 142.867832 
L 167.241099 145.343414 
L 169.914473 147.818996 
L 172.587847 150.294579 
L 175.261221 152.770161 
L 177.934595 155.245743 
L 180.607969 157.721325 
L 183.281343 160.196908 
L 185.954717 162.67249 
L 188.628091 165.148072 
L 191.301465 167.623655 
L 193.974839 170.099237 
L 196.648213 172.574819 
L 199.321587 175.050402 
L 201.994961 177.525984 
L 204.668335 180.001566 
L 207.341709 182.477149 
L 210.015083 184.952731 
L 212.688457 187.428313 
L 215.361832 189.903895 
L 218.035206 192.379478 
L 220.70858 194.85506 
L 223.381954 197.330642 
L 226.055328 199.806225 
L 228.728702 202.281807 
L 231.402076 204.757389 
L 234.07545 207.232972 
L 236.748824 209.708554 
L 239.422198 212.184136 
L 242.095572 214.659718 
L 244.768946 217.135301 
L 247.44232 219.610883 
L 250.115694 222.086465 
L 252.789068 224.562048 
L 255.462442 227.03763 
L 258.135816 229.513212 
L 260.809191 231.988795 
L 263.482565 234.464377 
L 266.155939 236.939959 
L 268.829313 239.415541 
L 271.502687 241.891124 
L 274.176061 244.366706 
L 276.849435 246.842288 
L 279.522809 249.317871 
L 282.196183 251.793453 
L 284.869557 254.269035 
L 287.542931 256.744618 
L 290.216305 259.2202 
L 292.889679 261.695782 
L 295.563053 264.171364 
L 298.236427 266.646947 
L 300.909801 269.122529 
L 303.583175 271.598111 
L 306.256549 274.073694 
L 308.929924 276.549276 
L 311.603298 279.024858 
L 314.276672 281.500441 
L 316.950046 283.976023 
" clip-path="url(#pa290a2a3eb)" style="fill: none; stroke-dasharray: 5.55,2.4; stroke-dashoffset: 0; stroke: #767676; stroke-opacity: 0.7; stroke-width: 1.5"/>
   </g>
   <g id="patch_3">
    <path d="M 39.052813 303.493375 
L 39.052813 26.293375 
" style="fill: none; stroke: #000000; stroke-width: 2; stroke-linejoin: miter; stroke-linecap: square"/>
   </g>
   <g id="patch_4">
    <path d="M 39.052813 303.493375 
L 330.183247 303.493375 
" style="fill: none; stroke: #000000; stroke-width: 2; stroke-linejoin: miter; stroke-linecap: square"/>
   </g>
   <g id="text_19">
    <text style="font-size: 10px; font-family: 'Arial', 'DejaVu Sans', 'Liberation Sans', sans-serif; text-anchor: start" x="65.35337" y="70.961863" transform="rotate(-0 65.35337 70.961863)">FY1-M1</text>
   </g>
   <g id="text_20">
    <text style="font-size: 10px; font-family: 'Arial', 'DejaVu Sans', 'Liberation Sans', sans-serif; text-anchor: start" x="177.092658" y="70.645075" transform="rotate(-0 177.092658 70.645075)">FY2-M2</text>
   </g>
   <g id="text_21">
    <text style="font-size: 10px; font-family: 'Arial', 'DejaVu Sans', 'Liberation Sans', sans-serif; text-anchor: start" x="296.74366" y="282.893375" transform="rotate(-0 296.74366 282.893375)">FY3-M3</text>
   </g>
   <g id="text_22">
    <text style="font-weight: 700; font-size: 14px; font-family: 'Arial', 'DejaVu Sans', 'Liberation Sans', sans-serif; text-anchor: start" x="15.762378" y="17.837813" transform="rotate(-0 15.762378 17.837813)">a</text>
   </g>
   <g id="PathCollection_1">
    <defs>
     <path id="C0_0_fbfca772ce" d="M 0 5.477226 
C 1.452577 5.477226 2.845856 4.900111 3.872983 3.872983 
C 4.900111 2.845856 5.477226 1.452577 5.477226 -0 
C 5.477226 -1.452577 4.900111 -2.845856 3.872983 -3.872983 
C 2.845856 -4.900111 1.452577 -5.477226 0 -5.477226 
C -1.452577 -5.477226 -2.845856 -4.900111 -3.872983 -3.872983 
C -4.900111 -2.845856 -5.477226 -1.452577 -5.477226 0 
C -5.477226 1.452577 -4.900111 2.845856 -3.872983 3.872983 
C -2.845856 4.900111 -1.452577 5.477226 0 5.477226 
z
"/>
    </defs>
    <g clip-path="url(#pa290a2a3eb)">
     <use xlink:href="#C0_0_fbfca772ce" x="57.35337" y="78.961863" style="fill: #0f4d92; stroke: #ffffff; stroke-width: 1.5"/>
    </g>
    <g clip-path="url(#pa290a2a3eb)">
     <use xlink:href="#C0_0_fbfca772ce" x="169.092658" y="78.645075" style="fill: #0f4d92; stroke: #ffffff; stroke-width: 1.5"/>
    </g>
    <g clip-path="url(#pa290a2a3eb)">
     <use xlink:href="#C0_0_fbfca772ce" x="288.74366" y="290.893375" style="fill: #0f4d92; stroke: #ffffff; stroke-width: 1.5"/>
    </g>
   </g>
  </g>
  <g id="axes_2">
   <g id="patch_5">
    <path d="M 563.087595 54.013375 
C 533.714163 54.013375 505.51193 65.685433 484.729597 86.4434 
C 463.947265 107.201367 452.24213 135.389887 452.207671 164.763299 
C 452.173213 194.136711 463.812178 222.352617 484.54575 243.159287 
C 505.279323 263.965957 533.454092 275.704153 562.827444 275.77307 
L 563.087595 164.893375 
z
" style="fill: #484878; stroke: #ffffff; stroke-width: 2; stroke-linejoin: miter"/>
   </g>
   <g id="patch_6">
    <path d="M 562.827415 275.773071 
C 577.398946 275.807266 591.835332 272.968683 605.309127 267.420036 
C 618.782926 261.871388 631.0317 253.720759 641.353473 243.435256 
C 651.675246 233.149754 659.868972 220.929702 665.465012 207.475518 
C 671.061052 194.021335 673.950418 179.595033 673.967516 165.023473 
C 673.984607 150.451912 671.129105 136.018868 665.564656 122.55159 
C 660.000206 109.084311 651.835176 96.845066 641.537566 86.535368 
C 631.239955 76.22567 619.01034 68.046325 605.549604 62.466073 
C 592.088865 56.885822 577.659181 54.013375 563.087611 54.013375 
L 563.087595 164.893375 
z
" style="fill: #7884b4; stroke: #ffffff; stroke-width: 2; stroke-linejoin: miter"/>
   </g>
   <g id="patch_7">
    <path d="M 563.087611 54.013375 
C 563.087611 54.013375 563.087611 54.013375 563.087611 54.013375 
L 563.087595 164.893375 
z
" style="fill: #e4ccd8; stroke: #ffffff; stroke-width: 2; stroke-linejoin: miter"/>
   </g>
   <g id="matplotlib.axis_3"/>
   <g id="matplotlib.axis_4"/>
   <g id="text_23">
    <text style="font-size: 11px; font-family: 'Arial', 'DejaVu Sans', 'Liberation Sans', sans-serif; text-anchor: end" x="441.119679" y="167.785598" transform="rotate(-0 441.119679 167.785598)">FY1-M1</text>
   </g>
   <g id="text_24">
    <text style="font-size: 10px; font-family: 'Arial', 'DejaVu Sans', 'Liberation Sans', sans-serif; text-anchor: middle; fill: #ffffff" x="496.559641" y="167.574701" transform="rotate(-0 496.559641 167.574701)">50.0%</text>
   </g>
   <g id="text_25">
    <text style="font-size: 11px; font-family: 'Arial', 'DejaVu Sans', 'Liberation Sans', sans-serif; text-anchor: start" x="685.055511" y="168.071737" transform="rotate(-0 685.055511 168.071737)">FY2-M2</text>
   </g>
   <g id="text_26">
    <text style="font-size: 10px; font-family: 'Arial', 'DejaVu Sans', 'Liberation Sans', sans-serif; text-anchor: middle; fill: #ffffff" x="629.615549" y="167.730777" transform="rotate(-0 629.615549 167.730777)">50.0%</text>
   </g>
   <g id="text_27">
    <text style="font-size: 11px; font-family: 'Arial', 'DejaVu Sans', 'Liberation Sans', sans-serif; text-anchor: end" x="563.087554" y="45.960688" transform="rotate(-0 563.087554 45.960688)">FY3-M3</text>
   </g>
   <g id="text_28">
    <text style="font-size: 10px; font-family: 'Arial', 'DejaVu Sans', 'Liberation Sans', sans-serif; text-anchor: middle; fill: #ffffff" x="563.087573" y="101.12475" transform="rotate(-0 563.087573 101.12475)">0.0%</text>
   </g>
   <g id="text_29">
    <text style="font-weight: 700; font-size: 14px; font-family: 'Arial', 'DejaVu Sans', 'Liberation Sans', sans-serif; text-anchor: start" x="402.311595" y="17.837813" transform="rotate(-0 402.311595 17.837813)">b</text>
   </g>
   <g id="text_30">
    <text style="font-weight: 700; font-size: 13px; font-family: 'Arial', 'DejaVu Sans', 'Liberation Sans', sans-serif; text-anchor: middle" x="563.087595" y="20.293375" transform="rotate(-0 563.087595 20.293375)">Total coverage: 13.4 s</text>
   </g>
  </g>
 </g>
 <defs>
  <clipPath id="pa290a2a3eb">
   <rect x="39.052813" y="26.293375" width="291.130435" height="277.2"/>
  </clipPath>
 </defs>
</svg>
